<svg width="213" height="191" viewBox="0 0 213 191" fill="none" xmlns="http://www.w3.org/2000/svg">
<path d="M79.7399 147.806C80.8076 168.243 96.1284 184.056 96.1284 184.056C96.1284 184.056 109.718 166.733 108.65 146.296C107.583 125.858 92.2618 110.045 92.2618 110.045C92.2618 110.045 78.6722 127.368 79.7399 147.806Z" fill="#F2F2F2"/>
<path d="M88.3103 145.308C99.6428 162.349 96.7764 184.179 96.7764 184.179C96.7764 184.179 75.5365 178.38 64.204 161.338C52.8716 144.297 55.7379 122.467 55.7379 122.467C55.7379 122.467 76.9778 128.266 88.3103 145.308Z" fill="#F2F2F2"/>
<path d="M49.8446 47.75C56.5175 67.097 48.2429 87.5005 48.2429 87.5005C48.2429 87.5005 29.1496 76.5363 22.4768 57.1893C15.804 37.8424 24.0785 17.439 24.0785 17.439C24.0785 17.439 43.1718 28.4031 49.8446 47.75Z" fill="#F2F2F2"/>
<path d="M195.366 72.703C197.765 93.0273 185.335 111.2 185.335 111.2C185.335 111.2 169.015 96.4211 166.615 76.0969C164.216 55.7726 176.647 37.5997 176.647 37.5997C176.647 37.5997 192.967 52.3788 195.366 72.703Z" fill="#F2F2F2"/>
<path d="M126.521 154.908C112.467 172.012 113.172 195.818 113.172 195.818C113.172 195.818 136.662 191.892 150.716 174.788C164.77 157.683 164.065 133.877 164.065 133.877C164.065 133.877 140.574 137.803 126.521 154.908Z" fill="#F2F2F2"/>
<path d="M135.189 159.163C131.812 181.042 113.6 196.389 113.6 196.389C113.6 196.389 100.863 176.265 104.24 154.386C107.617 132.508 125.829 117.16 125.829 117.16C125.829 117.16 138.566 137.285 135.189 159.163Z" fill="#F2F2F2"/>
<path d="M106.119 188.06H101.401L99.1564 169.86L106.121 169.861L106.119 188.06Z" fill="#FFB7B7"/>
<path d="M107.323 192.634L92.1089 192.633V192.441C92.109 190.87 92.7329 189.364 93.8434 188.254C94.9539 187.143 96.4601 186.519 98.0306 186.519H98.031L107.323 186.52L107.323 192.634Z" fill="#12112B"/>
<path d="M117.644 188.06H122.362L124.607 169.86L117.643 169.861L117.644 188.06Z" fill="#FFB7B7"/>
<path d="M116.44 186.52L125.732 186.519H125.733C127.303 186.519 128.81 187.143 129.92 188.254C131.031 189.364 131.654 190.87 131.655 192.441V192.633L116.441 192.634L116.44 186.52Z" fill="#12112B"/>
<path d="M105.071 45.8366C107.098 41.7576 105.434 36.8081 101.355 34.7815C97.2759 32.7549 92.3264 34.4186 90.2998 38.4976C88.2732 42.5765 89.937 47.5261 94.0159 49.5527C98.0949 51.5793 103.044 49.9155 105.071 45.8366Z" fill="#FFB7B7"/>
<path d="M91.6126 98.9008C91.6126 98.9008 89.0083 109.752 90.3105 114.961C91.6126 120.169 95.5191 155.761 95.5191 155.761L98.1234 183.975L108.541 184.843L107.238 151.855L108.541 123.208L115.919 150.987V184.073L126.967 184.507L127.205 141.438C127.205 141.438 128.073 107.582 122.43 103.241C116.788 98.9008 115.919 98.0327 115.919 98.0327L91.6126 98.9008Z" fill="#12112B"/>
<path d="M107.339 51.1553L117.222 56.3639L118.524 101.505C118.524 101.505 112.881 98.0327 104.2 102.373C95.5191 106.714 89.8764 103.675 89.8764 103.675L95.085 84.1431L92.9148 58.1001L96.0189 55.2827L107.339 51.1553Z" fill="#CBCBCB"/>
<path d="M96.0199 54.461L94.2169 55.9298C94.2169 55.9298 82.9316 61.5724 82.4976 65.4789L90.3105 86.7473C90.3105 86.7473 92.4808 91.5219 90.7446 93.2581C89.0084 94.9943 87.2721 99.3348 87.7062 101.505C88.1402 103.675 85.1019 112.79 88.5743 112.79C92.0467 112.79 100.294 91.9559 99.8596 83.709C99.4255 75.462 99.1251 53.8603 96.0199 54.461Z" fill="#12112B"/>
<path d="M103.607 51.6443L107.583 50.9828C107.583 50.9828 122.34 54.8892 124.511 61.4L118.434 76.5917C118.434 76.5917 122.774 104.371 121.472 104.371H120.17C120.17 104.371 123.643 106.975 121.472 107.843C119.302 108.711 114.093 115.656 112.791 112.618C111.489 109.58 103.676 73.5534 104.544 65.7405C105.412 57.9275 102.836 52.4628 103.607 51.6443Z" fill="#12112B"/>
<path d="M105.332 34.0921L105.719 33.3146L103.775 32.349C103.775 32.349 101.631 28.8603 97.7513 29.8407C93.8715 30.8211 92.1259 31.4078 92.1259 31.4078L90.1873 32.3833L91.1603 33.3514L89.4148 33.9382L90.5809 34.5176L89.2241 35.2975L89.9545 39.2954C89.9545 39.2954 91.1676 36.2631 93.4999 37.4219C95.8322 38.5807 100.098 36.8229 100.098 36.8229L103.805 43.9957C103.805 43.9957 104.569 41.4813 105.932 42.1517C105.932 42.1518 109.415 36.6052 105.332 34.0921Z" fill="#12112B"/>
<path d="M117.405 110.257C117.191 109.733 117.094 109.169 117.121 108.604C117.148 108.039 117.299 107.486 117.563 106.986C117.826 106.485 118.197 106.049 118.647 105.707C119.098 105.365 119.618 105.126 120.171 105.006L121.842 91.3552L127.286 95.9854L124.865 108.239C125.004 109.181 124.792 110.142 124.27 110.939C123.747 111.735 122.951 112.313 122.031 112.561C121.112 112.81 120.133 112.713 119.28 112.288C118.428 111.863 117.761 111.141 117.405 110.257V110.257Z" fill="#FFB7B7"/>
<path d="M94.12 109.317C94.2778 108.774 94.3144 108.203 94.2275 107.644C94.1405 107.084 93.932 106.551 93.6167 106.081C93.3014 105.612 92.8869 105.217 92.4024 104.925C91.918 104.632 91.3753 104.45 90.8127 104.39L87.7039 90.9928L82.7814 96.1741L86.4882 108.102C86.4503 109.054 86.7629 109.986 87.3667 110.723C87.9705 111.46 88.8236 111.95 89.7643 112.099C90.705 112.249 91.668 112.049 92.4708 111.536C93.2736 111.023 93.8604 110.234 94.12 109.317V109.317Z" fill="#FFB7B7"/>
<path d="M117.615 57.8627C117.615 57.8627 123.258 55.6925 124.994 62.2033C126.73 68.714 128.9 81.7355 128.9 81.7355C129.008 88.9763 128.623 88.9763 128.9 96.0592L127.598 102.57L120.219 101.702L120.541 85.1277L116.747 68.2799L117.615 57.8627Z" fill="#12112B"/>
<path d="M86.404 62.8748L83.7287 63.1609C83.7287 63.1609 81.1954 65.045 81.1954 69.3855C81.1954 73.726 80.7613 86.7475 80.7613 86.7475C80.7613 86.7475 80.5151 87.0522 82.4975 98.0328C83.4638 103.385 85.1335 105.911 85.1335 105.911L90.5217 100.907L89.8764 88.0497L91.6126 81.1048L86.404 62.8748Z" fill="#12112B"/>
</svg>
