<svg width="206" height="191" viewBox="0 0 206 191" fill="none" xmlns="http://www.w3.org/2000/svg">
<path d="M49.9182 149.456C57.6973 169.105 50.7575 189.149 50.7575 189.149C50.7575 189.149 31.2053 177.335 23.4262 157.686C15.6471 138.038 22.5869 117.994 22.5869 117.994C22.5869 117.994 42.1391 129.807 49.9182 149.456Z" fill="#F2F2F2"/>
<path d="M125.973 137.535C121.445 158.177 104.49 170.923 104.49 170.923C104.49 170.923 94.8756 150.201 99.4028 129.559C103.93 108.916 120.885 96.1709 120.885 96.1709C120.885 96.1709 130.5 116.893 125.973 137.535Z" fill="#F2F2F2"/>
<path d="M65.1141 91.9442C62.5021 103.854 52.7195 111.208 52.7195 111.208C52.7195 111.208 47.1719 99.2521 49.784 87.342C52.3961 75.432 62.1787 68.0781 62.1787 68.0781C62.1787 68.0781 67.7262 80.0341 65.1141 91.9442Z" fill="#F2F2F2"/>
<path d="M197.842 74.2182C188.186 94.3335 167.673 103.321 167.673 103.321C167.673 103.321 162.815 79.6959 172.472 59.5807C182.128 39.4655 202.641 30.4778 202.641 30.4778C202.641 30.4778 207.498 54.1031 197.842 74.2182Z" fill="#F2F2F2"/>
<path d="M112.043 29.4061C119.858 46.8271 114.404 65.1989 114.404 65.1989C114.404 65.1989 96.279 55.3259 88.4641 37.905C80.6491 20.4841 86.1035 2.11229 86.1035 2.11229C86.1035 2.11229 104.228 11.9852 112.043 29.4061Z" fill="#F2F2F2"/>
<path d="M172.525 149.58C169.913 161.49 160.131 168.844 160.131 168.844C160.131 168.844 154.583 156.888 157.195 144.978C159.807 133.067 169.59 125.714 169.59 125.714C169.59 125.714 175.137 137.67 172.525 149.58Z" fill="#F2F2F2"/>
</svg>
