<svg width="180" height="57" viewBox="0 0 180 57" fill="none" xmlns="http://www.w3.org/2000/svg">
<path d="M20.412 14.728V19.66H13.716V40H7.56V19.66H0.864V14.728H20.412ZM32.6455 40.252C30.7975 40.252 29.1415 39.952 27.6775 39.352C26.2135 38.752 25.0375 37.864 24.1495 36.688C23.2855 35.512 22.8295 34.096 22.7815 32.44H29.3335C29.4295 33.376 29.7535 34.096 30.3055 34.6C30.8575 35.08 31.5775 35.32 32.4655 35.32C33.3775 35.32 34.0975 35.116 34.6255 34.708C35.1535 34.276 35.4175 33.688 35.4175 32.944C35.4175 32.32 35.2015 31.804 34.7695 31.396C34.3615 30.988 33.8455 30.652 33.2215 30.388C32.6215 30.124 31.7575 29.824 30.6295 29.488C28.9975 28.984 27.6655 28.48 26.6335 27.976C25.6015 27.472 24.7135 26.728 23.9695 25.744C23.2255 24.76 22.8535 23.476 22.8535 21.892C22.8535 19.54 23.7055 17.704 25.4095 16.384C27.1135 15.04 29.3335 14.368 32.0695 14.368C34.8535 14.368 37.0975 15.04 38.8015 16.384C40.5055 17.704 41.4175 19.552 41.5375 21.928H34.8775C34.8295 21.112 34.5295 20.476 33.9775 20.02C33.4255 19.54 32.7175 19.3 31.8535 19.3C31.1095 19.3 30.5095 19.504 30.0535 19.912C29.5975 20.296 29.3695 20.86 29.3695 21.604C29.3695 22.42 29.7535 23.056 30.5215 23.512C31.2895 23.968 32.4895 24.46 34.1215 24.988C35.7535 25.54 37.0735 26.068 38.0815 26.572C39.1135 27.076 40.0015 27.808 40.7455 28.768C41.4895 29.728 41.8615 30.964 41.8615 32.476C41.8615 33.916 41.4895 35.224 40.7455 36.4C40.0255 37.576 38.9695 38.512 37.5775 39.208C36.1855 39.904 34.5415 40.252 32.6455 40.252ZM57.998 19.696C60.302 19.696 62.15 20.464 63.542 22C64.934 23.512 65.63 25.6 65.63 28.264V40H59.51V29.092C59.51 27.748 59.162 26.704 58.466 25.96C57.77 25.216 56.834 24.844 55.658 24.844C54.482 24.844 53.546 25.216 52.85 25.96C52.154 26.704 51.806 27.748 51.806 29.092V40H45.65V13.36H51.806V22.612C52.43 21.724 53.282 21.016 54.362 20.488C55.442 19.96 56.654 19.696 57.998 19.696ZM68.6838 29.92C68.6838 27.856 69.0678 26.044 69.8358 24.484C70.6278 22.924 71.6958 21.724 73.0398 20.884C74.3838 20.044 75.8838 19.624 77.5398 19.624C78.9558 19.624 80.1918 19.912 81.2478 20.488C82.3278 21.064 83.1558 21.82 83.7318 22.756V19.912H89.8878V40H83.7318V37.156C83.1318 38.092 82.2918 38.848 81.2118 39.424C80.1558 40 78.9198 40.288 77.5038 40.288C75.8718 40.288 74.3838 39.868 73.0398 39.028C71.6958 38.164 70.6278 36.952 69.8358 35.392C69.0678 33.808 68.6838 31.984 68.6838 29.92ZM83.7318 29.956C83.7318 28.42 83.2998 27.208 82.4358 26.32C81.5958 25.432 80.5638 24.988 79.3398 24.988C78.1158 24.988 77.0718 25.432 76.2078 26.32C75.3678 27.184 74.9478 28.384 74.9478 29.92C74.9478 31.456 75.3678 32.68 76.2078 33.592C77.0718 34.48 78.1158 34.924 79.3398 34.924C80.5638 34.924 81.5958 34.48 82.4358 33.592C83.2998 32.704 83.7318 31.492 83.7318 29.956ZM93.1174 29.92C93.1174 27.856 93.5014 26.044 94.2694 24.484C95.0614 22.924 96.1294 21.724 97.4734 20.884C98.8174 20.044 100.317 19.624 101.973 19.624C103.293 19.624 104.493 19.9 105.573 20.452C106.677 21.004 107.541 21.748 108.165 22.684V13.36H114.321V40H108.165V37.12C107.589 38.08 106.761 38.848 105.681 39.424C104.625 40 103.389 40.288 101.973 40.288C100.317 40.288 98.8174 39.868 97.4734 39.028C96.1294 38.164 95.0614 36.952 94.2694 35.392C93.5014 33.808 93.1174 31.984 93.1174 29.92ZM108.165 29.956C108.165 28.42 107.733 27.208 106.869 26.32C106.029 25.432 104.997 24.988 103.773 24.988C102.549 24.988 101.505 25.432 100.641 26.32C99.8014 27.184 99.3814 28.384 99.3814 29.92C99.3814 31.456 99.8014 32.68 100.641 33.592C101.505 34.48 102.549 34.924 103.773 34.924C104.997 34.924 106.029 34.48 106.869 33.592C107.733 32.704 108.165 31.492 108.165 29.956ZM117.551 29.92C117.551 27.856 117.935 26.044 118.703 24.484C119.495 22.924 120.563 21.724 121.907 20.884C123.251 20.044 124.751 19.624 126.407 19.624C127.823 19.624 129.059 19.912 130.115 20.488C131.195 21.064 132.023 21.82 132.599 22.756V19.912H138.755V40H132.599V37.156C131.999 38.092 131.159 38.848 130.079 39.424C129.023 40 127.787 40.288 126.371 40.288C124.739 40.288 123.251 39.868 121.907 39.028C120.563 38.164 119.495 36.952 118.703 35.392C117.935 33.808 117.551 31.984 117.551 29.92ZM132.599 29.956C132.599 28.42 132.167 27.208 131.303 26.32C130.463 25.432 129.431 24.988 128.207 24.988C126.983 24.988 125.939 25.432 125.075 26.32C124.235 27.184 123.815 28.384 123.815 29.92C123.815 31.456 124.235 32.68 125.075 33.592C125.939 34.48 126.983 34.924 128.207 34.924C129.431 34.924 130.463 34.48 131.303 33.592C132.167 32.704 132.599 31.492 132.599 29.956ZM168.841 19.696C171.337 19.696 173.317 20.452 174.781 21.964C176.269 23.476 177.013 25.576 177.013 28.264V40H170.893V29.092C170.893 27.796 170.545 26.8 169.849 26.104C169.177 25.384 168.241 25.024 167.041 25.024C165.841 25.024 164.893 25.384 164.197 26.104C163.525 26.8 163.189 27.796 163.189 29.092V40H157.069V29.092C157.069 27.796 156.721 26.8 156.025 26.104C155.353 25.384 154.417 25.024 153.217 25.024C152.017 25.024 151.069 25.384 150.373 26.104C149.701 26.8 149.365 27.796 149.365 29.092V40H143.209V19.912H149.365V22.432C149.989 21.592 150.805 20.932 151.813 20.452C152.821 19.948 153.961 19.696 155.233 19.696C156.745 19.696 158.089 20.02 159.265 20.668C160.465 21.316 161.401 22.24 162.073 23.44C162.769 22.336 163.717 21.436 164.917 20.74C166.117 20.044 167.425 19.696 168.841 19.696Z" fill="black"/>
<line x1="117" y1="4.25" x2="180" y2="4.25" stroke="black" stroke-width="1.5"/>
<line y1="56.25" x2="63" y2="56.25" stroke="black" stroke-width="1.5"/>
</svg>