<svg width="828" height="642" viewBox="0 0 828 642" fill="none" xmlns="http://www.w3.org/2000/svg">
<g opacity="0.8">
<g opacity="0.8">
<path opacity="0.8" d="M94.5407 439.23C95.3749 438.059 96.2091 436.926 97.0498 435.849C103.606 427.494 110.664 422.148 116.77 421.016C118.722 420.611 120.774 420.739 122.635 421.382C130.019 424.025 134.197 435.416 133.981 450.566C133.981 451.488 133.936 452.432 133.89 453.381C135.32 453.525 136.712 453.71 138.068 453.936C152.138 456.079 162.037 461.708 163.445 469.114C164.918 476.886 157.228 486.129 144.102 493.408C143.405 493.791 142.695 494.168 141.965 494.518C142.456 495.584 142.908 496.637 143.32 497.677C148.762 511.267 148.827 523.258 142.994 528.304C141.511 529.576 139.617 530.444 137.553 530.797C131.544 531.907 123.215 529.581 114.294 524.335C113.016 523.595 111.713 522.784 110.384 521.904C109.693 522.892 108.989 523.847 108.285 524.751C101.631 533.268 94.2475 538.747 87.8934 539.924C85.862 540.343 83.7277 540.213 81.787 539.552C74.7291 537.031 70.7081 526.606 70.669 512.544C70.669 511.061 70.7081 509.535 70.7928 507.964C69.5937 507.845 68.425 507.701 67.2867 507.531C52.9493 505.377 42.5939 499.348 41.1471 491.698C39.7394 484.297 46.6605 475.632 58.7429 468.687C60.092 467.904 61.5192 467.149 62.9985 466.41C62.3903 465.085 61.832 463.779 61.3237 462.491C56.0189 449.167 55.8038 437.753 61.4736 432.857C62.9663 431.578 64.8719 430.707 66.9478 430.353C73.3801 429.165 82.4778 431.83 92.1555 437.715C92.9462 438.196 93.7413 438.701 94.5407 439.23ZM116.438 413.316C108.754 414.737 100.491 420.971 92.9245 430.625C82.2301 424.124 72.5524 421.549 64.9015 422.959C61.5933 423.561 58.5697 424.987 56.2144 427.056C48.394 433.817 48.394 447.596 54.7611 463.546C40.3194 471.873 31.3456 482.893 33.255 493.102C35.2427 503.589 47.2535 511.506 64.3085 514.07C64.1911 530.897 69.2939 543.493 79.0303 546.98C82.1148 548.063 85.5218 548.29 88.7667 547.629C96.5871 546.18 105.059 540.346 112.436 530.858C122.766 536.915 132.528 539.63 140.101 538.231C143.117 537.694 145.878 536.405 148.032 534.528C156.035 527.611 156.126 513.127 149.661 496.994C165.302 488.35 173.018 478.269 171.004 467.643C169.049 457.395 157.215 450.433 140.375 447.841C140.609 429.754 135.161 417.54 125.053 413.915C122.332 412.953 119.326 412.743 116.457 413.316" fill="white"/>
<path opacity="0.8" d="M107.073 505.654C109.569 505.193 112.019 504.677 114.424 504.122C112.665 507.825 110.82 511.256 108.937 514.359C105.952 512.138 102.915 509.596 99.8978 506.831C102.25 506.493 104.649 506.104 107.067 505.654H107.073ZM86.9095 534.65C85.7971 534.888 84.6256 534.83 83.5533 534.483C79.2716 532.951 76.0261 524.585 76.0066 512.56C76.0066 511.178 76.0066 509.785 76.1239 508.297C81.7829 508.469 87.449 508.256 93.0681 507.658C97.0997 511.612 101.434 515.334 106.043 518.8C105.392 519.705 104.74 520.571 104.127 521.393C100.178 526.456 95.9876 530.275 92.0775 532.574C90.5301 533.527 88.7857 534.224 86.9356 534.628L86.9095 534.65ZM136.536 525.518C132.163 526.328 125.034 524.407 116.946 519.689C115.76 518.995 114.555 518.24 113.342 517.435C116.281 512.561 118.871 507.541 121.098 502.401C126.62 500.886 131.994 499.002 137.168 496.766C137.603 497.74 138.011 498.694 138.394 499.631C140.805 505.638 142.043 511.245 142.069 515.802C142.069 519.899 141.131 522.814 139.521 524.202C138.698 524.879 137.661 525.336 136.536 525.518ZM88.1933 502.695C84.3341 502.981 80.458 503.066 76.5866 502.951C76.9907 499.237 77.6293 495.334 78.4765 491.326C79.9754 493.258 81.5352 495.171 83.1557 497.066C84.8045 499.004 86.4859 500.874 88.1933 502.695ZM123.737 496.033C124.623 493.774 125.477 491.442 126.305 489.066C127.132 486.69 127.908 484.253 128.612 481.849C130.958 485.308 133.03 488.689 134.77 491.942C131.191 493.484 127.506 494.843 123.737 496.011V496.033ZM139.586 489.671C136.887 484.689 133.829 479.854 130.43 475.193C131.809 469.745 132.82 464.235 133.46 458.688C134.764 458.822 136.05 458.983 137.318 459.171C149.375 461.014 157.378 465.544 158.225 470.019C159.131 474.793 152.855 482.366 141.515 488.644C140.864 488.994 140.244 489.338 139.56 489.671H139.586ZM71.2362 502.623C70.1413 502.518 69.0725 502.384 68.0363 502.229C61.6888 501.28 56.2601 499.514 52.3304 497.233C48.7982 495.167 46.7779 492.852 46.3739 490.737C45.5267 486.246 51.0791 479.29 61.4086 473.35C62.6663 472.628 64.0153 471.923 65.3644 471.235C67.9909 476.211 70.9681 481.048 74.2796 485.719C72.8933 491.302 71.8772 496.948 71.2362 502.629V502.623ZM126.22 469.697C124.708 467.776 123.131 465.852 121.489 463.923C119.879 462.041 118.23 460.209 116.601 458.444C120.436 458.222 124.283 458.191 128.123 458.35C127.712 461.947 127.08 465.755 126.22 469.697ZM76.0978 478.968C73.8886 475.604 71.9074 472.267 70.1869 469.009C73.6743 467.523 77.2529 466.198 80.9074 465.039C80.008 467.293 79.1521 469.593 78.3397 471.94C77.5272 474.286 76.7799 476.629 76.0978 478.968ZM106.076 500.391C102.27 501.096 98.5488 501.663 94.9384 502.057C92.286 499.387 89.6792 496.561 87.118 493.596C84.5569 490.632 82.2238 487.64 80.0145 484.62C80.966 481.011 82.0739 477.358 83.3317 473.716C84.5895 470.074 85.9776 466.499 87.4504 463.096C91.0413 462.147 94.7429 461.309 98.5293 460.615C102.316 459.921 106.082 459.371 109.771 458.949C112.378 461.586 114.939 464.395 117.461 467.354C119.983 470.313 122.401 473.322 124.63 476.276C123.665 479.873 122.544 483.543 121.267 487.234C119.99 490.926 118.66 494.485 117.213 497.865C113.636 498.804 109.908 499.631 106.089 500.336L106.076 500.391ZM90.3896 456.812C92.1622 453.215 94.0456 449.834 95.9811 446.714C99.0806 449.063 102.039 451.544 104.844 454.147C102.433 454.475 99.9956 454.863 97.5517 455.319C95.1079 455.774 92.7487 456.268 90.3831 456.812H90.3896ZM67.8213 464.134C67.2543 462.902 66.7329 461.681 66.2572 460.487C61.6953 449.062 61.5519 439.841 64.9538 436.887C65.789 436.203 66.8395 435.74 67.9777 435.555C72.7025 434.683 80.6076 436.887 89.4381 442.25C90.1484 442.689 90.8718 443.15 91.5952 443.621C88.5969 448.459 85.9419 453.446 83.6445 458.555C78.2135 460.08 72.9225 461.944 67.8147 464.134H67.8213ZM128.566 452.959C122.947 452.717 117.314 452.854 111.72 453.37C107.753 449.426 103.477 445.717 98.9203 442.267C99.6828 441.157 100.458 440.135 101.234 439.141C107.177 431.564 113.31 427.05 117.735 426.229C118.775 426.002 119.872 426.054 120.876 426.378C125.438 428.005 128.833 437.32 128.651 450.394C128.651 451.233 128.605 452.06 128.566 452.954V452.959ZM116.79 421.016C110.683 422.126 103.626 427.494 97.0695 435.849C96.2288 436.926 95.3946 438.07 94.5604 439.23C93.7393 438.705 92.9377 438.199 92.1557 437.715C82.478 431.83 73.3802 429.165 66.948 430.353C64.872 430.707 62.9664 431.578 61.4737 432.857C55.8039 437.753 56.019 449.156 61.3238 462.491C61.8322 463.779 62.3904 465.086 62.9987 466.41C61.5193 467.149 60.0921 467.904 58.7431 468.687C46.6671 475.632 39.7461 484.298 41.1472 491.698C42.594 499.348 52.9234 505.377 67.2869 507.531C68.4295 507.701 69.5982 507.845 70.793 507.964C70.7083 509.535 70.6627 511.061 70.6692 512.544C70.6692 526.606 74.7293 537.032 81.7871 539.552C83.7279 540.213 85.8621 540.343 87.8936 539.924C94.2476 538.747 101.631 533.262 108.285 524.752C108.989 523.847 109.693 522.892 110.384 521.904C111.687 522.773 112.99 523.584 114.294 524.335C123.229 529.581 131.544 531.907 137.553 530.797C139.617 530.444 141.511 529.576 142.995 528.305C148.827 523.258 148.762 511.267 143.32 497.677C142.886 496.637 142.434 495.584 141.965 494.518C142.695 494.14 143.405 493.763 144.103 493.408C157.228 486.13 164.918 476.864 163.445 469.114C162.037 461.692 152.138 456.079 138.068 453.936C136.712 453.733 135.32 453.548 133.89 453.381C133.936 452.432 133.969 451.488 133.982 450.566C134.197 435.416 130.019 424.025 122.636 421.382C120.774 420.739 118.722 420.611 116.77 421.016" fill="#53C1DE"/>
<path opacity="0.8" d="M114.424 504.122C112.019 504.677 109.569 505.193 107.073 505.654C104.577 506.115 102.25 506.493 99.9043 506.831C102.922 509.607 105.959 512.116 108.943 514.359C110.827 511.256 112.671 507.825 114.431 504.122H114.424ZM76.1173 508.319C76.0326 509.779 76 511.2 76 512.583C76 524.607 79.2585 532.973 83.5467 534.506C84.6257 534.847 85.8021 534.898 86.916 534.65C88.7661 534.246 90.5105 533.549 92.0579 532.596C95.9681 530.325 100.159 526.489 104.108 521.415C104.759 520.593 105.411 519.75 106.024 518.822C101.415 515.357 97.0801 511.634 93.0485 507.681C87.4295 508.278 81.7633 508.492 76.1043 508.319H76.1173ZM137.136 496.788C131.961 499.024 126.588 500.908 121.065 502.423C118.838 507.563 116.248 512.583 113.31 517.457C114.522 518.262 115.728 519.017 116.914 519.711C125.001 524.452 132.131 526.373 136.504 525.54C137.628 525.359 138.666 524.901 139.488 524.224C141.098 522.836 142.095 519.922 142.037 515.825C142.037 511.267 140.772 505.66 138.361 499.653C137.987 498.717 137.579 497.762 137.136 496.788ZM78.4439 491.348C77.5967 495.356 76.958 499.259 76.554 502.973C80.4254 503.088 84.3015 503.003 88.1607 502.718C86.4533 500.897 84.7719 499.026 83.1231 497.088C81.4743 495.151 79.9428 493.28 78.4439 491.348ZM128.579 481.91C127.875 484.292 127.106 486.696 126.272 489.127C125.438 491.559 124.591 493.835 123.704 496.094C127.474 494.926 131.158 493.567 134.738 492.025C132.998 488.772 130.925 485.391 128.579 481.933V481.91ZM133.428 458.772C132.788 464.318 131.776 469.828 130.397 475.276C133.796 479.937 136.854 484.773 139.554 489.755C140.205 489.422 140.857 489.077 141.509 488.728C152.848 482.449 159.105 474.849 158.218 470.102C157.371 465.628 149.368 461.098 137.312 459.255C136.061 459.066 134.775 458.905 133.454 458.772H133.428ZM65.3643 471.229C63.9892 471.918 62.6663 472.623 61.4085 473.344C51.0791 479.284 45.5266 486.241 46.3738 490.732C46.7779 492.847 48.7982 495.173 52.3304 497.227C56.2406 499.514 61.6888 501.28 68.0363 502.223C69.0725 502.379 70.1413 502.512 71.2361 502.618C71.8772 496.937 72.8933 491.291 74.2796 485.708C70.9681 481.037 67.9909 476.2 65.3643 471.224V471.229ZM116.601 458.455C118.243 460.221 119.859 462.053 121.489 463.934C123.118 465.816 124.708 467.787 126.22 469.708C127.08 465.767 127.712 461.936 128.123 458.361C124.283 458.202 120.436 458.233 116.601 458.455ZM80.9073 465.045C77.2538 466.19 73.6752 467.503 70.1869 468.975C71.9074 472.234 73.8885 475.571 76.0978 478.935C76.7843 476.592 77.5315 474.253 78.3396 471.918C79.1477 469.582 80.0036 467.278 80.9073 465.006V465.045ZM104.368 491.387C98.3403 492.497 92.5206 488.478 91.3671 482.388C90.2136 476.298 94.1629 470.474 100.191 469.358C106.219 468.242 112.045 472.267 113.225 478.352C114.405 484.436 110.41 490.293 104.408 491.409L104.368 491.387ZM98.5423 460.648C94.782 461.342 91.0803 462.18 87.4634 463.13C85.9906 466.544 84.609 470.097 83.3447 473.75C82.0804 477.402 80.979 481.044 80.0275 484.653C82.2368 487.673 84.5894 490.682 87.1311 493.63C89.6727 496.577 92.2664 499.42 94.9514 502.09C98.5618 501.668 102.283 501.102 106.089 500.425C109.895 499.747 113.636 498.892 117.213 497.954C118.634 494.573 119.99 491.02 121.267 487.323C122.544 483.626 123.665 479.962 124.63 476.364C122.423 473.404 120.033 470.43 117.461 467.443C114.939 464.484 112.365 461.675 109.771 459.038C106.082 459.432 102.322 459.971 98.5293 460.703L98.5423 460.648ZM95.9616 446.825C94.0065 449.945 92.1426 453.326 90.37 456.923C92.7291 456.368 95.1209 455.874 97.5387 455.43C99.9565 454.985 102.42 454.586 104.831 454.258C102.027 451.636 99.0692 449.136 95.9681 446.769L95.9616 446.825ZM67.9451 435.611C66.8069 435.796 65.7564 436.259 64.9212 436.943C61.5128 439.896 61.6627 449.117 66.2246 460.543C66.7003 461.736 67.2217 462.957 67.7886 464.19C72.8964 462 78.1874 460.135 83.6184 458.611C85.9158 453.502 88.5708 448.515 91.5691 443.677C90.8457 443.205 90.1223 442.744 89.412 442.306C80.5815 436.943 72.6764 434.739 67.9516 435.611H67.9451ZM117.709 426.29C113.284 427.111 107.151 431.625 101.208 439.202C100.432 440.196 99.6567 441.24 98.8942 442.328C103.451 445.778 107.727 449.487 111.694 453.431C117.287 452.915 122.921 452.778 128.54 453.02C128.579 452.154 128.612 451.299 128.625 450.461C128.807 437.387 125.366 428.072 120.85 426.445C119.846 426.121 118.749 426.068 117.709 426.295" fill="white"/>
<path opacity="0.8" d="M100.198 469.381C94.1694 470.491 90.2201 476.331 91.3736 482.41C92.5271 488.489 98.3467 492.525 104.375 491.409C110.403 490.293 114.359 484.464 113.205 478.374C112.052 472.284 106.232 468.265 100.171 469.381" fill="#53C1DE"/>
</g>
</g>
<g opacity="0.4">
<g opacity="0.4">
<path opacity="0.4" d="M132.004 170.873C135.544 170.222 137.492 168.41 136.466 162.995L129.511 126.12L140.257 124.14L147.275 161.157C149.369 172.381 143.85 178.698 134.34 180.455C125.73 182.052 119.897 178.483 116.336 173.532L124.076 166.573C126.338 169.249 128.349 171.551 132.036 170.873H132.004ZM173.731 163.245C178.193 162.415 180.591 159.676 180.015 156.544C179.313 152.833 176.15 152.083 170.83 150.79L167.918 150.129C159.539 148.229 153.611 144.999 151.935 136.175C150.385 128.038 155.35 120.714 164.944 118.938C171.783 117.671 177.145 119.17 181.858 124.782L174.527 131.75C172.055 128.761 169.803 127.815 166.735 128.378C166.022 128.505 165.345 128.751 164.745 129.102C164.144 129.453 163.631 129.902 163.236 130.423C162.841 130.944 162.57 131.527 162.441 132.138C162.312 132.748 162.326 133.375 162.482 133.981C163.09 137.228 165.342 138.183 170.327 139.334L173.228 140.003C183.115 142.26 189.012 145.356 190.73 154.394C192.583 164.155 185.996 170.909 175.794 172.791C165.813 174.638 158.46 171.007 154.124 165.332L161.906 158.605C164.923 161.978 168.442 164.217 173.741 163.236L173.731 163.245ZM182.351 61.525L68 82.6701L89.8794 198.04L204.22 176.895L182.309 61.5339" fill="#F7DF1E"/>
<path opacity="0.4" d="M140.226 124.14L129.511 126.12L136.497 162.995C137.545 168.41 135.576 170.222 132.036 170.873C128.496 171.524 126.338 169.276 124.076 166.573L116.336 173.532C119.897 178.483 125.762 182.052 134.34 180.455C143.85 178.671 149.401 172.425 147.275 161.157L140.257 124.14" fill="black"/>
<path opacity="0.4" d="M164.902 118.938C155.308 120.722 150.343 128.038 151.893 136.175C153.569 144.999 159.497 148.229 167.876 150.129L170.788 150.79C176.108 152.056 179.271 152.833 179.973 156.544C180.56 159.64 178.161 162.415 173.689 163.245C168.389 164.226 164.87 161.987 161.854 158.614L154.072 165.341C158.408 171.042 165.761 174.647 175.742 172.8C185.943 170.918 192.5 164.164 190.677 154.403C188.96 145.347 183.063 142.269 173.176 140.012L170.275 139.343C165.289 138.183 163.037 137.228 162.43 133.989C162.273 133.383 162.259 132.757 162.389 132.146C162.518 131.536 162.788 130.953 163.184 130.432C163.579 129.911 164.092 129.462 164.692 129.111C165.293 128.76 165.969 128.513 166.682 128.386C169.751 127.824 172.003 128.77 174.475 131.759L181.806 124.791C177.093 119.179 171.73 117.653 164.891 118.947" fill="black"/>
</g>
</g>
<g opacity="0.4">
<g opacity="0.4">
<path opacity="0.4" d="M459.348 200.765L441.354 204.093L445.292 224.908L463.024 221.634C464.594 221.351 466.117 220.905 467.559 220.304C468.923 219.743 470.144 218.957 471.151 217.993C472.164 216.975 472.881 215.767 473.246 214.469C473.677 212.802 473.702 211.077 473.319 209.402C472.579 205.512 470.963 202.933 468.47 201.666C465.69 200.376 462.431 200.056 459.379 200.774L459.348 200.765ZM451.335 172.152L435.792 175.043L439.155 192.771L455.912 189.675C458.613 189.26 461.048 188.031 462.772 186.213C464.396 184.429 464.867 181.975 464.302 178.781C464.09 177.293 463.485 175.866 462.532 174.606C461.772 173.659 460.726 172.903 459.505 172.42C458.28 171.976 456.96 171.754 455.629 171.769C454.171 171.775 452.718 171.913 451.293 172.179L451.335 172.152ZM431.216 240.95L416.846 165.113L452.205 158.573C455.469 157.926 458.814 157.627 462.165 157.681C465.008 157.725 467.801 158.32 470.334 159.42C472.812 160.552 474.883 162.236 476.325 164.292C478.124 166.938 479.288 169.861 479.75 172.893C480.515 176.236 480.252 179.69 478.986 182.921C477.651 185.909 475.432 188.552 472.544 190.594C477.087 190.934 481.289 192.783 484.243 195.742C487.36 199.063 489.342 203.051 489.972 207.269C490.711 210.695 490.6 214.214 489.648 217.601C488.8 220.509 487.212 223.223 484.997 225.55C482.834 227.783 480.198 229.65 477.226 231.055C474.223 232.48 470.991 233.52 467.632 234.142L431.216 240.878V240.95ZM485.322 126.864L393.238 143.887C384.409 145.52 378.575 154.076 380.303 162.989L397.92 255.894C399.606 264.816 408.142 270.713 416.971 269.081L509.108 252.084C517.947 250.443 523.771 241.895 522.053 232.982L504.384 140.069C502.698 131.147 494.162 125.249 485.322 126.891" fill="#563D7C"/>
<path opacity="0.4" d="M445.292 224.908L441.354 204.093L459.348 200.765C462.399 200.047 465.659 200.367 468.439 201.657C470.931 202.924 472.548 205.503 473.288 209.393C473.67 211.068 473.645 212.793 473.215 214.46C472.85 215.758 472.132 216.966 471.12 217.984C470.112 218.948 468.892 219.734 467.527 220.295C466.086 220.896 464.563 221.342 462.992 221.625L445.313 224.899L445.292 224.908ZM439.217 192.726L435.792 175.043L451.262 172.179C452.686 171.913 454.14 171.775 455.598 171.769C456.929 171.754 458.249 171.976 459.473 172.42C460.695 172.903 461.74 173.659 462.5 174.606C463.453 175.866 464.059 177.293 464.27 178.781C464.878 181.975 464.364 184.447 462.741 186.213C461.016 188.031 458.581 189.26 455.881 189.675L439.123 192.771L439.217 192.726ZM452.142 158.609L416.783 165.148L431.153 240.985L467.569 234.249C470.928 233.627 474.16 232.587 477.163 231.162C480.135 229.758 482.771 227.89 484.935 225.657C487.149 223.33 488.737 220.616 489.585 217.708C490.537 214.321 490.648 210.802 489.91 207.376C489.279 203.158 487.297 199.17 484.18 195.849C481.226 192.89 477.024 191.041 472.481 190.701C475.37 188.659 477.589 186.016 478.923 183.028C480.189 179.797 480.452 176.343 479.687 173C479.225 169.968 478.061 167.045 476.262 164.399C474.82 162.343 472.749 160.66 470.272 159.528C467.738 158.427 464.945 157.832 462.102 157.788C458.751 157.734 455.406 158.033 452.142 158.68" fill="white"/>
</g>
</g>
<g opacity="0.6">
<g opacity="0.6">
<path opacity="0.6" d="M384.126 441.99L366.83 445.189L370.353 457.658L386.525 454.619L384.126 441.959V441.99ZM419.405 409.863L428.102 497.368L397.479 512.398L395.044 499.58L368.632 497.186L363.11 477.673L375.402 475.393L378.265 485.515L392.618 486.715L388.871 466.959L361.496 472.095L351.113 435.311L381.78 429.635L379.443 417.279L419.405 409.893V409.863ZM426.764 400.015L329 418.092L356.991 517.201L399.076 521L436.95 502.414L426.764 400" fill="#E34E26"/>
<path opacity="0.6" d="M403.937 464.216L388.862 466.997L392.609 486.753L405.552 480.507L403.937 464.216ZM419.405 409.893L379.443 417.279L381.78 429.635L412.456 423.966L413.705 436.526L384.17 441.99L386.525 454.619L414.989 449.36L418.816 487.939L395.044 499.61L397.479 512.429L428.102 497.399L419.405 409.893Z" fill="#EF662A"/>
<path opacity="0.6" d="M351.113 435.311L361.496 472.095L388.862 467.035L403.937 464.254L405.552 480.545L392.609 486.791L395.044 499.648L368.632 497.254L363.11 477.741L368.632 497.254L395.044 499.648L418.816 487.939L414.989 449.391L386.525 454.619L388.862 466.966L361.496 472.095L351.113 435.311ZM412.456 423.966L381.78 429.635L384.126 441.99L366.83 445.189L384.126 441.99L413.66 436.526L412.411 423.966" fill="white"/>
<path opacity="0.6" d="M381.78 429.635L351.113 435.303L361.496 472.057L388.871 466.997L386.525 454.649L370.353 457.635L366.839 445.189L384.126 441.99L381.78 429.635Z" fill="#EBEBEB"/>
<path opacity="0.6" d="M375.384 475.431L363.092 477.711L368.614 497.216L395.026 499.618L395.053 499.602L392.609 486.753H392.6L378.247 485.56L375.384 475.431Z" fill="#EBEBEB"/>
</g>
</g>
<g opacity="0.6">
<g opacity="0.6">
<path opacity="0.6" d="M733.379 460.993C733.26 461.03 733.13 461.03 733.012 460.993C732.687 460.886 733.253 460.101 733.253 460.101C733.253 460.101 737.086 453.972 738.542 451.241C739.369 449.653 740.364 447.771 741.391 445.683L741.485 446.209C742.679 452.455 737.474 457.808 735.128 460.003C734.644 460.45 734.046 460.795 733.379 461.011V460.993ZM638.331 500.321C637.157 500.581 635.919 500.532 634.78 500.179C630.182 498.537 629.837 487.831 636.299 478.909C640.088 473.877 644.407 469.15 649.202 464.785C650.03 464.036 651.245 463.001 652.721 461.636C652.973 461.413 653.109 461.305 653.109 461.305C653.402 461.047 653.685 460.779 653.978 460.511C656.295 465.067 657.37 470.01 657.123 474.97C656.876 479.931 655.314 484.779 652.554 489.151C648.668 495.468 642.792 499.474 638.341 500.295L638.331 500.321ZM763.522 447.655C762.747 447.289 762.558 445.621 763.899 440.089C764.845 436.588 766.531 433.262 768.874 430.275C769.533 431.425 769.992 432.652 770.235 433.915C771.691 441.82 766.653 445.799 763.522 447.655ZM687.19 469.068C687.11 469.081 687.029 469.081 686.949 469.068C684.394 468.862 680.874 458.504 682.33 447.351C683.105 442.031 684.762 436.831 687.253 431.908C689.232 428.615 691.662 426.644 693.328 426.331C693.598 426.259 693.888 426.259 694.158 426.332C694.428 426.406 694.665 426.549 694.836 426.742C696.407 428.606 693.862 444.835 693.129 448.529C691.976 454.266 690.039 468.532 687.19 469.05V469.068ZM683.001 331.107C672.721 333.115 662.989 336.786 654.334 341.92C637.325 351.841 619.489 365.822 607.8 381.873C593.912 400.957 593.87 415.322 596.059 420.933C603.904 440.821 634.633 449.038 647.788 456.898C647.286 457.326 646.814 457.719 646.406 458.04C641.305 461.903 621.96 477.213 618.881 490.159C615.383 504.872 624.286 513.303 629.187 513.749C631.987 513.997 634.815 513.865 637.566 513.356C649.223 511.197 658.985 502.534 663.603 491.578C669.312 478.079 665.384 462.617 660.325 456.149C660.277 456.064 660.205 455.99 660.116 455.934C661.425 454.801 662.755 453.624 664.043 452.491C666.599 450.233 669.133 448.119 671.322 446.361C670.583 451.483 670.565 456.662 671.27 461.787C672.118 469.594 677.135 478.998 681.964 482.165C682.778 482.662 683.716 482.99 684.705 483.125C685.694 483.26 686.706 483.197 687.661 482.941C692.448 482.049 693.83 477.651 695.328 472.458C697.14 466.106 698.47 458.87 698.47 458.87C698.47 458.87 698.638 477.722 707.561 476.071C710.808 475.474 713.29 470.62 714.327 468.175V468.22C714.327 468.22 714.39 468.086 714.505 467.756L714.861 466.81V466.721C715.72 464.196 717.658 458.459 720.36 449.02C723.837 436.85 726.644 421.942 726.644 421.942C727.73 424.886 729.02 427.773 730.509 430.587C732.101 433.728 734.824 436.993 737.107 440.205C736.165 442.293 735.547 443.462 735.547 443.462H735.599C734.813 445.05 733.955 446.772 732.981 448.485C729.566 454.614 725.45 461.689 725.052 463.581C724.602 465.82 725.052 467.301 726.948 468.229C728.306 468.73 729.832 468.793 731.242 468.407C731.671 468.327 732.111 468.229 732.551 468.122C735.374 467.419 738.017 466.272 740.344 464.74C742.72 463.339 744.838 461.643 746.628 459.708C748.592 457.599 749.977 455.142 750.684 452.518C751.391 449.894 751.4 447.169 750.712 444.541C749.863 441.247 748.399 438.09 746.376 435.191C746.67 434.539 746.931 433.906 747.235 433.255C750.471 425.578 753.188 417.749 755.373 409.808C756.466 412.751 757.76 415.638 759.248 418.453C760.879 421.33 762.763 424.098 764.883 426.733C759.426 433.201 756.63 440.116 755.96 444.345C754.818 452.268 757.447 455.256 761.364 455.328C761.681 455.339 761.997 455.315 762.307 455.256C764.052 454.795 765.667 454.033 767.051 453.017C769.623 451.579 771.904 449.795 773.807 447.735C777.546 443.702 780.866 438.43 779.462 432.371C778.767 429.635 777.618 426.998 776.048 424.538C780.391 421.723 785.419 419.775 790.763 418.837C792.855 418.452 794.976 418.193 797.11 418.061C816.853 416.785 822.97 428.232 823.2 433.478C823.287 437.143 821.685 440.691 818.738 443.363C817.565 444.479 817.167 444.844 817.408 445.433C817.649 446.022 818.005 446.138 818.56 446.04C818.874 445.967 819.181 445.877 819.482 445.772C821.011 445.192 828.835 439.768 827.421 430.284C825.756 418.194 812.025 407.211 792.125 410.887L791.853 410.941C784.714 412.32 778.102 415.218 772.634 419.363C769.785 415.616 767.02 412.324 766.14 409.683C765.093 406.605 764.286 404.776 764.045 400.912C763.804 397.049 764.998 391.295 764.873 390.893C764.747 390.492 763.941 388.654 759.479 389.439L759.144 389.501C754.829 390.304 751.32 391.875 751.11 393.07C750.74 395.395 750.537 397.737 750.503 400.083C750.503 404.312 745.13 420.434 741.915 428.945C739.82 426.269 738.06 423.86 737.369 421.808C736.374 418.73 735.515 416.892 735.274 413.046C735.033 409.201 736.227 403.42 736.102 403.027C735.976 402.634 735.17 400.779 730.708 401.564L730.425 401.617C726.078 402.42 722.549 403.991 722.329 405.186C722.109 406.382 722.151 409.326 721.732 412.199C721.313 415.072 715.102 441.463 713.468 448.288C712.62 451.795 711.845 454.596 711.29 456.523C711.267 456.644 711.236 456.763 711.195 456.88C710.703 458.54 710.41 459.441 710.41 459.441V459.485C710.012 460.699 709.562 461.841 709.226 461.903C708.891 461.966 707.98 459.084 708.001 454.935C708.001 446.156 709.363 432.273 709.247 431.827C709.307 431.035 709.004 430.253 708.403 429.647C707.802 429.04 706.948 428.654 706.022 428.571C705.376 428.451 704.708 428.451 704.063 428.571C702.314 428.901 701.811 430.194 701.581 430.23C701.35 430.266 701.235 431.015 701.235 431.015C701.235 431.015 701.958 415.553 691.694 417.445C685.284 418.632 677.785 427.348 674.611 434.54C672.15 436.556 666.882 440.883 661.257 445.522C659.163 447.307 656.9 449.091 654.827 450.822C654.638 450.688 654.429 450.51 654.24 450.376C639.294 439.295 614.545 434.084 612.115 415.946C611.235 409.326 610.209 391.732 647.725 363.181C662.388 352.136 676.413 346.23 687.818 344.151C700.46 341.813 709.886 344.106 713.395 349.138C722.947 362.789 706.901 394.391 672.38 404.918C670.859 405.38 669.306 405.761 667.73 406.06C657.309 407.988 650.888 404.794 648.993 403.384C647.38 402.162 646.762 401.778 646.322 401.867C646.129 401.914 645.957 402.011 645.83 402.144C644.782 402.973 645.882 404.678 646.5 405.713C648.071 408.3 653.35 412.413 661.163 413.466C665.462 413.874 669.812 413.636 674.014 412.761C684.054 410.737 693.494 406.964 701.738 401.68C721.533 389.385 733.839 363.101 725.251 344.579C719.438 331.919 702.303 327.547 682.99 331.116" fill="#CD6799"/>
</g>
</g>
</svg>
